HIERARCHY
ROOT hip
{
	OFFSET 0.000000 0.000000 0.000000
	CHANNELS 6 Xposition Yposition Zposition Xrotation Zrotation Yrotation 
	JOINT abdomen
	{
		OFFSET 0.000000 3.422050 0.000000
		CHANNELS 3 Xrotation Zrotation Yrotation 
		JOINT chest
		{
			OFFSET 0.000000 8.486693 -0.684411
			CHANNELS 3 Xrotation Zrotation Yrotation 
			JOINT neck
			{
				OFFSET 0.000000 10.266162 -0.273764
				CHANNELS 3 Xrotation Zrotation Yrotation 
				JOINT head
				{
					OFFSET 0.000000 3.148285 0.000000
					CHANNELS 3 Xrotation Zrotation Yrotation 
					End Site
					{
						OFFSET 0.000000 3.148289 0.000000
					}
				}
			}
			JOINT lCollar
			{
				OFFSET 3.422053 6.707223 -0.821293
				CHANNELS 3 Yrotation Zrotation Xrotation 
				JOINT lShldr
				{
					OFFSET 3.285171 0.000000 0.000000
					CHANNELS 3 Zrotation Yrotation Xrotation 
					JOINT lForeArm
					{
						OFFSET 10.129278 0.000000 0.000000
						CHANNELS 3 Yrotation Zrotation Xrotation 
						JOINT lHand
						{
							OFFSET 8.486692 0.000000 0.000000
							CHANNELS 3 Zrotation Yrotation Xrotation 
							End Site
							{
								OFFSET 4.106464 0.000000 0.000000
							}
						}
					}
				}
			}
			JOINT rCollar
			{
				OFFSET -3.558935 6.707223 -0.821293
				CHANNELS 3 Yrotation Zrotation Xrotation 
				JOINT rShldr
				{
					OFFSET -3.148289 0.000000 0.000000
					CHANNELS 3 Zrotation Yrotation Xrotation 
					JOINT rForeArm
					{
						OFFSET -10.266159 0.000000 0.000000
						CHANNELS 3 Yrotation Zrotation Xrotation 
						JOINT rHand
						{
							OFFSET -8.349810 0.000000 0.000000
							CHANNELS 3 Zrotation Yrotation Xrotation 
							End Site
							{
								OFFSET -4.106464 0.000000 0.000000
							}
						}
					}
				}
			}
		}
	}
	JOINT lThigh
	{
		OFFSET 5.338403 -1.642589 1.368821
		CHANNELS 3 Xrotation Zrotation Yrotation 
		JOINT lShin
		{
			OFFSET -2.053232 -20.121670 0.000000
			CHANNELS 3 Xrotation Zrotation Yrotation 
			JOINT lFoot
			{
				OFFSET 0.000000 -19.300380 -1.231939
				CHANNELS 3 Xrotation Yrotation Zrotation 
				End Site
				{
					OFFSET 0.000000 -2.463878 4.653993
				}
			}
		}
	}
	JOINT rThigh
	{
		OFFSET -5.338403 -1.642589 1.368821
		CHANNELS 3 Xrotation Zrotation Yrotation 
		JOINT rShin
		{
			OFFSET 2.053232 -20.121670 0.000000
			CHANNELS 3 Xrotation Zrotation Yrotation 
			JOINT rFoot
			{
				OFFSET 0.000000 -19.300380 -1.231939
				CHANNELS 3 Xrotation Yrotation Zrotation 
				End Site
				{
					OFFSET 0.000000 -2.463878 4.653993
				}
			}
		}
	}
}
MOTION
Frames: 11
Frame Time: 0.033264
0.000000 42.816540 -0.261105 -92.734337 0.000000 0.000000 24.261078 0.020213 -0.002233 -2.030126 -0.098292 -0.595758 -6.338929 -9.002123 -0.000740 -3.151281 0.882457 -14.701477 0.466493 -7.576663 29.158880 -60.738449 -63.969414 -10.709241 -28.836315 -12.071583 -32.255676 -15.294182 -4.586486 30.077887 -12.328035 -22.349920 -2.237259 84.589874 -39.778511 -5.044356 71.607758 23.038786 42.571301 11.645063 -9.060165 18.517269 -1.935518 19.195829 0.262397 15.786174 -0.372100 -0.282844 10.736734 0.465483 5.379895 -15.361179 -11.900862 -3.719162 42.726910 2.708846 0.280377 18.598225 2.258432 -8.448793 
0.000000 42.854012 -0.247363 -92.959839 0.000000 0.000000 24.486328 0.021180 -0.002298 -2.425406 -0.096885 -0.593462 -5.525595 -9.002110 -0.000750 -3.212763 0.878967 -14.775783 0.504031 -7.642158 29.462971 -60.738449 -63.969414 -10.709241 -28.836315 -12.071583 -32.255676 -15.294182 -4.586486 30.077887 -12.449811 -23.004618 -2.582132 84.703354 -40.172020 -5.223577 71.298759 24.003523 43.057400 11.518119 -9.153353 18.098829 -1.679977 19.197302 0.329006 15.786174 -0.372100 -0.282844 10.736734 0.465483 5.379895 -15.076640 -11.926584 -3.783594 42.726910 2.708846 0.280377 18.598225 2.258432 -8.448793 
0.000000 42.891483 -0.233620 -93.185326 0.000000 0.000000 24.711575 0.022147 -0.002359 -2.820667 -0.095462 -0.591175 -4.711604 -9.002097 -0.000759 -3.274237 0.875397 -14.850080 0.541924 -7.707455 29.767147 -60.738449 -63.969414 -10.709241 -28.836315 -12.071583 -32.255676 -15.294182 -4.586486 30.077887 -12.576470 -23.658516 -2.930170 84.819099 -40.565231 -5.404861 70.978470 24.965456 43.552792 11.391843 -9.247448 17.680523 -1.424438 19.198492 0.395621 15.786174 -0.372100 -0.282844 10.736734 0.465483 5.379895 -14.792052 -11.951992 -3.848160 42.726910 2.708846 0.280377 18.598225 2.258432 -8.448793 
0.000000 42.928955 -0.219878 -93.410805 0.000000 0.000000 24.936815 0.023115 -0.002416 -3.215901 -0.094024 -0.588899 -3.897034 -9.002083 -0.000769 -3.335703 0.871749 -14.924367 0.580171 -7.772545 30.071394 -60.738449 -63.969414 -10.709241 -28.836315 -12.071583 -32.255676 -15.294182 -4.586486 30.077887 -12.708093 -24.311533 -3.281479 84.937164 -40.958141 -5.588248 70.646553 25.924316 44.057854 11.266246 -9.342440 17.262352 -1.168903 19.199408 0.462240 15.786174 -0.372100 -0.282844 10.736734 0.465483 5.379895 -14.507411 -11.977083 -3.912858 42.726910 2.708846 0.280377 18.598225 2.258432 -8.448793 
0.000000 42.966427 -0.206135 -93.636269 0.000000 0.000000 25.162045 0.024082 -0.002469 -3.611095 -0.092570 -0.586634 -3.081967 -9.002069 -0.000778 -3.397160 0.868020 -14.998650 0.618769 -7.837431 30.375717 -60.738449 -63.969414 -10.709241 -28.836315 -12.071583 -32.255676 -15.294182 -4.586486 30.077887 -12.844778 -24.963585 -3.636166 85.057610 -41.350716 -5.773806 70.302666 26.879808 44.572990 11.141334 -9.438319 16.844332 -0.913375 19.200035 0.528860 15.786174 -0.372100 -0.282844 10.736734 0.465483 5.379895 -14.222734 -12.001861 -3.977687 42.726910 2.708846 0.280377 18.598225 2.258432 -8.448793 
0.000000 43.003899 -0.192393 -93.861725 0.000000 0.000000 25.387266 0.025050 -0.002519 -4.006243 -0.091100 -0.584378 -2.266490 -9.002055 -0.000787 -3.458607 0.864212 -15.072918 0.657718 -7.902109 30.680115 -60.738449 -63.969414 -10.709241 -28.836315 -12.071583 -32.255676 -15.294182 -4.586486 30.077887 -12.986611 -25.614586 -3.994341 85.180481 -41.742939 -5.961568 69.946411 27.831625 45.098576 11.017122 -9.535081 16.426479 -0.657857 19.200388 0.595479 15.786176 -0.372100 -0.282844 10.736734 0.465483 5.379895 -13.938022 -12.026323 -4.042643 42.726910 2.708846 0.280377 18.598225 2.258432 -8.448793 
0.000000 43.041370 -0.178651 -94.087173 0.000000 0.000000 25.612484 0.026018 -0.002564 -4.401336 -0.089615 -0.582133 -1.450681 -9.002039 -0.000796 -3.520045 0.860325 -15.147178 0.697016 -7.966574 30.984570 -60.738449 -63.969414 -10.709241 -28.836315 -12.071583 -32.255676 -15.294182 -4.586486 30.077887 -13.133699 -26.264469 -4.356124 85.305809 -42.134789 -6.151596 69.577400 28.779488 45.635067 10.893619 -9.632713 16.008802 -0.402351 19.200459 0.662097 15.786174 -0.372100 -0.282844 10.736734 0.465483 5.379895 -13.653272 -12.050467 -4.107723 42.726910 2.708846 0.280377 18.598225 2.258432 -8.448793 
0.000000 43.078842 -0.164908 -94.312630 0.000000 0.000000 25.837687 0.026986 -0.002606 -4.796361 -0.088115 -0.579898 -0.634625 -9.002027 -0.000804 -3.581476 0.856359 -15.221436 0.736662 -8.030824 31.289083 -60.738449 -63.969414 -10.709241 -28.836315 -12.071583 -32.255676 -15.294182 -4.586486 30.077887 -13.286126 -26.913113 -4.721624 85.433670 -42.526268 -6.343935 69.195244 29.723085 46.182888 10.770833 -9.731209 15.591315 -0.146862 19.200247 0.728709 15.786174 -0.372100 -0.282844 10.736734 0.465483 5.379895 -13.368493 -12.074289 -4.172925 42.726910 2.708846 0.280377 18.598225 2.258432 -8.448793 
0.000000 43.116314 -0.151166 -94.538055 0.000000 0.000000 26.062872 0.027954 -0.002644 -5.191313 -0.086601 -0.577675 0.181599 -9.002014 -0.000813 -3.642896 0.852313 -15.295679 0.776655 -8.094861 31.593676 -60.738449 -63.969414 -10.709241 -28.836315 -12.071583 -32.255676 -15.294182 -4.586486 30.077887 -13.444012 -27.560467 -5.090968 85.564095 -42.917332 -6.538641 68.799500 30.662123 46.742496 10.648772 -9.830557 15.174027 0.108608 19.199757 0.795315 15.786176 -0.372100 -0.282844 10.736734 0.465483 5.379895 -13.083691 -12.097795 -4.238248 42.726910 2.708846 0.280377 18.598225 2.258432 -8.448793 
0.000000 43.153786 -0.137424 -94.763458 0.000000 0.000000 26.288042 0.028922 -0.002678 -5.586179 -0.085071 -0.575462 0.997904 -9.001999 -0.000821 -3.704306 0.848188 -15.369910 0.816991 -8.158675 31.898306 -60.738449 -63.969414 -10.709241 -28.836315 -12.071583 -32.255676 -15.294182 -4.586486 30.077887 -13.607450 -28.206423 -5.464272 85.697174 -43.307980 -6.735775 68.389732 31.596277 47.314358 10.527449 -9.930746 14.756950 0.364056 19.198986 0.861913 15.786174 -0.372100 -0.282844 10.736734 0.465483 5.379895 -12.798862 -12.120976 -4.303687 42.726910 2.708846 0.280377 18.598225 2.258432 -8.448793 
0.000000 43.191254 -0.123681 -94.988861 0.000000 0.000000 26.513193 0.029890 -0.002709 -5.980949 -0.083526 -0.573261 1.814211 -9.001985 -0.000829 -3.765706 0.843983 -15.444134 0.857670 -8.222267 32.202988 -60.738449 -63.969414 -10.709241 -28.836315 -12.071583 -32.255676 -15.294184 -4.586487 30.077887 -13.776558 -28.850904 -5.841668 85.832909 -43.698170 -6.935386 67.965454 32.525238 47.898968 10.406873 -10.031773 14.340102 0.619478 19.197931 0.928500 15.786174 -0.372100 -0.282844 10.736734 0.465483 5.379895 -12.514023 -12.143842 -4.369241 42.726910 2.708846 0.280377 18.598225 2.258432 -8.448793 
